<svg width="42" height="42" viewBox="0 0 42 42" fill="none" xmlns="http://www.w3.org/2000/svg">
<rect width="42" height="42" rx="8.4" fill="#0078D4"/>
<path fill-rule="evenodd" clip-rule="evenodd" d="M30.4761 13.7764C29.978 13.3535 29.2686 13.2671 28.7375 13.5647C28.4673 13.7162 28.414 13.779 27.0871 15.5088C25.7496 17.2525 24.0464 19.448 24.0003 19.4879C23.9798 19.5056 23.9584 19.4436 23.9482 19.3372C23.8741 18.5624 23.4746 17.4271 22.975 16.5716C21.873 14.6845 19.9978 13.2927 17.8778 12.7883C15.9363 12.3265 14.1064 12.689 12.4608 13.8615C11.079 14.8461 10.1795 16.4425 9.98508 18.2555C9.93833 18.6916 9.92701 19.2351 9.95718 19.598C9.96603 19.7045 9.96511 19.7821 9.95518 19.7706C9.94522 19.7591 9.82024 19.3942 9.67741 18.9598C9.3695 18.0232 9.26132 17.8011 8.96559 17.4986C8.57493 17.099 8.06406 16.9337 7.55724 17.0431C7.31571 17.0952 7.27662 17.1165 7.02636 17.3327C6.77692 17.5483 6.74918 17.585 6.6641 17.8124C6.47817 18.3094 6.52525 18.5748 7.21616 20.9244C7.73098 22.6752 8.04891 23.4784 8.63918 24.5197C9.01014 25.1741 9.30965 25.6045 9.93842 26.3869C10.9373 27.6296 11.991 28.7293 12.8327 29.4074C14.7177 30.9259 17.2138 31.5895 19.7434 31.2445C20.8005 31.1003 21.0425 31.009 23.2931 29.9048C24.5464 29.2898 25.1216 29.0297 25.6347 28.846C25.826 28.7775 27.2052 28.3381 28.6997 27.8695C32.9495 26.537 32.887 26.5605 33.1355 26.1992C33.4698 25.7129 33.4678 25.1175 33.1301 24.5643C32.8407 24.0904 32.2532 23.771 31.7444 23.8111C31.5537 23.8261 30.8185 24.0447 27.8591 24.9663C26.8049 25.2946 26.471 25.3816 26.6894 25.2712C26.7344 25.2484 27.3916 24.8346 28.15 24.3514C28.9083 23.8682 30.355 22.9488 31.3649 22.3082C33.4518 20.9843 33.534 20.9207 33.6874 20.5107C33.9022 19.9364 33.7508 19.3094 33.2828 18.8353C33.0246 18.5736 32.7471 18.4327 32.3788 18.3761C31.839 18.293 31.8345 18.2951 30.0616 19.4405C29.2075 19.9923 28.2495 20.6086 27.9326 20.8101C27.6157 21.0116 27.1159 21.3324 26.8218 21.5229C26.5278 21.7134 26.2812 21.8623 26.2739 21.8537C26.2566 21.8333 27.8427 19.7443 29.768 17.2519C30.5603 16.2261 30.9317 15.7187 30.9806 15.595C31.216 14.9997 31 14.2212 30.4761 13.7764ZM20.2167 17.8602C21.054 19.2073 21.0801 20.8266 20.2845 22.073C20.0786 22.3956 19.5403 22.9133 19.201 23.1151C18.5168 23.5222 17.7713 23.6785 16.9297 23.5915C16.2089 23.517 15.5124 23.2378 14.8867 22.7726C14.4712 22.4637 13.982 21.8831 13.7294 21.3993C12.8247 19.6663 13.1837 17.6563 14.5909 16.5756C16.3209 15.247 18.9681 15.8515 20.2167 17.8602Z" fill="white"/>
</svg>
