<svg width="28" height="20" viewBox="0 0 28 20" fill="none" xmlns="http://www.w3.org/2000/svg">
<g clip-path="url(#paint0_diamond_134_3431_clip_path)" data-figma-skip-parse="true"><g transform="matrix(-0.00907983 0.0078458 -0.0078458 -0.00907983 14.9256 8.99986)"><rect x="0" y="0" width="1083.33" height="1083.33" fill="url(#paint0_diamond_134_3431)" opacity="1" shape-rendering="crispEdges"/><rect x="0" y="0" width="1083.33" height="1083.33" transform="scale(1 -1)" fill="url(#paint0_diamond_134_3431)" opacity="1" shape-rendering="crispEdges"/><rect x="0" y="0" width="1083.33" height="1083.33" transform="scale(-1 1)" fill="url(#paint0_diamond_134_3431)" opacity="1" shape-rendering="crispEdges"/><rect x="0" y="0" width="1083.33" height="1083.33" transform="scale(-1)" fill="url(#paint0_diamond_134_3431)" opacity="1" shape-rendering="crispEdges"/></g></g><path fill-rule="evenodd" clip-rule="evenodd" d="M24.4719 1.72299C23.9701 1.29693 23.2553 1.20992 22.7203 1.50976C22.4481 1.66233 22.3943 1.72564 21.0576 3.46838C19.7101 5.22514 17.9941 7.43706 17.9476 7.47722C17.927 7.49502 17.9054 7.43258 17.8952 7.32545C17.8205 6.54486 17.418 5.40099 16.9147 4.53916C15.8044 2.63789 13.9153 1.23569 11.7794 0.727567C9.82338 0.262229 7.97981 0.627473 6.32187 1.80878C4.92974 2.80072 4.02354 4.40908 3.82762 6.23565C3.78052 6.675 3.76912 7.22256 3.79952 7.58812C3.80843 7.6954 3.80751 7.77366 3.7975 7.76208C3.78746 7.75047 3.66155 7.38288 3.51765 6.94523C3.20744 6.0016 3.09845 5.77784 2.80051 5.47309C2.40693 5.07046 1.89223 4.90398 1.38163 5.01411C1.13829 5.06661 1.09891 5.08809 0.846781 5.30595C0.59547 5.5231 0.56753 5.56012 0.481805 5.78922C0.294492 6.28993 0.341921 6.55732 1.038 8.92445C1.55667 10.6883 1.87697 11.4976 2.47166 12.5467C2.84539 13.2059 3.14714 13.6396 3.78061 14.4278C4.78693 15.6799 5.84854 16.7878 6.69655 17.4709C8.59564 19.0008 11.1104 19.6693 13.659 19.3218C14.7239 19.1765 14.9677 19.0845 17.2351 17.972C18.4978 17.3524 19.0774 17.0904 19.5942 16.9053C19.787 16.8363 21.1765 16.3936 22.6822 15.9215C26.9638 14.579 26.9008 14.6027 27.1511 14.2387C27.4879 13.7487 27.486 13.149 27.1457 12.5916C26.8542 12.1142 26.2623 11.7924 25.7496 11.8327C25.5576 11.8479 24.8168 12.0681 21.8353 12.9966C20.7732 13.3274 20.4369 13.415 20.6569 13.3038C20.7022 13.2809 21.3644 12.8639 22.1283 12.3771C22.8923 11.8903 24.3499 10.964 25.3673 10.3186C27.4698 8.98481 27.5526 8.92072 27.7072 8.50765C27.9236 7.92907 27.7711 7.29738 27.2996 6.81971C27.0394 6.55613 26.7599 6.41413 26.3888 6.35707C25.845 6.27345 25.8405 6.27551 24.0543 7.4295C23.1938 7.98541 22.2286 8.60634 21.9094 8.80936C21.5901 9.01235 21.0865 9.33552 20.7903 9.52749C20.494 9.71942 20.2456 9.86943 20.2383 9.86075C20.2208 9.84021 21.8188 7.73552 23.7584 5.22451C24.5567 4.19106 24.9308 3.67984 24.9801 3.55522C25.2173 2.95547 24.9997 2.17115 24.4719 1.72299ZM14.1358 5.83738C14.9794 7.19449 15.0056 8.82598 14.2041 10.0817C13.9966 10.4067 13.4543 10.9283 13.1125 11.1316C12.4231 11.5417 11.672 11.6992 10.8242 11.6116C10.098 11.5365 9.39632 11.2552 8.76592 10.7865C8.34729 10.4752 7.85443 9.89039 7.59994 9.40289C6.68846 7.65697 7.05013 5.63195 8.4679 4.54314C10.2108 3.20463 12.8778 3.81363 14.1358 5.83738Z" data-figma-gradient-fill="{&#34;type&#34;:&#34;GRADIENT_DIAMOND&#34;,&#34;stops&#34;:[{&#34;color&#34;:{&#34;r&#34;:0.066666670143604279,&#34;g&#34;:0.066666670143604279,&#34;b&#34;:0.066666670143604279,&#34;a&#34;:1.0},&#34;position&#34;:0.0},{&#34;color&#34;:{&#34;r&#34;:0.11764705926179886,&#34;g&#34;:0.16078431904315948,&#34;b&#34;:0.23137255012989044,&#34;a&#34;:1.0},&#34;position&#34;:0.50},{&#34;color&#34;:{&#34;r&#34;:0.20000000298023224,&#34;g&#34;:0.20000000298023224,&#34;b&#34;:0.20000000298023224,&#34;a&#34;:1.0},&#34;position&#34;:1.0}],&#34;stopsVar&#34;:[{&#34;color&#34;:{&#34;r&#34;:0.066666670143604279,&#34;g&#34;:0.066666670143604279,&#34;b&#34;:0.066666670143604279,&#34;a&#34;:1.0},&#34;position&#34;:0.0},{&#34;color&#34;:{&#34;r&#34;:0.11764705926179886,&#34;g&#34;:0.16078431904315948,&#34;b&#34;:0.23137255012989044,&#34;a&#34;:1.0},&#34;position&#34;:0.50},{&#34;color&#34;:{&#34;r&#34;:0.20000000298023224,&#34;g&#34;:0.20000000298023224,&#34;b&#34;:0.20000000298023224,&#34;a&#34;:1.0},&#34;position&#34;:1.0}],&#34;transform&#34;:{&#34;m00&#34;:-18.159667968750,&#34;m01&#34;:-15.691605567932129,&#34;m02&#34;:31.851272583007812,&#34;m10&#34;:15.691605567932129,&#34;m11&#34;:-18.159667968750,&#34;m12&#34;:10.233886718750},&#34;opacity&#34;:1.0,&#34;blendMode&#34;:&#34;NORMAL&#34;,&#34;visible&#34;:true}"/>
<defs>
<clipPath id="paint0_diamond_134_3431_clip_path"><path fill-rule="evenodd" clip-rule="evenodd" d="M24.4719 1.72299C23.9701 1.29693 23.2553 1.20992 22.7203 1.50976C22.4481 1.66233 22.3943 1.72564 21.0576 3.46838C19.7101 5.22514 17.9941 7.43706 17.9476 7.47722C17.927 7.49502 17.9054 7.43258 17.8952 7.32545C17.8205 6.54486 17.418 5.40099 16.9147 4.53916C15.8044 2.63789 13.9153 1.23569 11.7794 0.727567C9.82338 0.262229 7.97981 0.627473 6.32187 1.80878C4.92974 2.80072 4.02354 4.40908 3.82762 6.23565C3.78052 6.675 3.76912 7.22256 3.79952 7.58812C3.80843 7.6954 3.80751 7.77366 3.7975 7.76208C3.78746 7.75047 3.66155 7.38288 3.51765 6.94523C3.20744 6.0016 3.09845 5.77784 2.80051 5.47309C2.40693 5.07046 1.89223 4.90398 1.38163 5.01411C1.13829 5.06661 1.09891 5.08809 0.846781 5.30595C0.59547 5.5231 0.56753 5.56012 0.481805 5.78922C0.294492 6.28993 0.341921 6.55732 1.038 8.92445C1.55667 10.6883 1.87697 11.4976 2.47166 12.5467C2.84539 13.2059 3.14714 13.6396 3.78061 14.4278C4.78693 15.6799 5.84854 16.7878 6.69655 17.4709C8.59564 19.0008 11.1104 19.6693 13.659 19.3218C14.7239 19.1765 14.9677 19.0845 17.2351 17.972C18.4978 17.3524 19.0774 17.0904 19.5942 16.9053C19.787 16.8363 21.1765 16.3936 22.6822 15.9215C26.9638 14.579 26.9008 14.6027 27.1511 14.2387C27.4879 13.7487 27.486 13.149 27.1457 12.5916C26.8542 12.1142 26.2623 11.7924 25.7496 11.8327C25.5576 11.8479 24.8168 12.0681 21.8353 12.9966C20.7732 13.3274 20.4369 13.415 20.6569 13.3038C20.7022 13.2809 21.3644 12.8639 22.1283 12.3771C22.8923 11.8903 24.3499 10.964 25.3673 10.3186C27.4698 8.98481 27.5526 8.92072 27.7072 8.50765C27.9236 7.92907 27.7711 7.29738 27.2996 6.81971C27.0394 6.55613 26.7599 6.41413 26.3888 6.35707C25.845 6.27345 25.8405 6.27551 24.0543 7.4295C23.1938 7.98541 22.2286 8.60634 21.9094 8.80936C21.5901 9.01235 21.0865 9.33552 20.7903 9.52749C20.494 9.71942 20.2456 9.86943 20.2383 9.86075C20.2208 9.84021 21.8188 7.73552 23.7584 5.22451C24.5567 4.19106 24.9308 3.67984 24.9801 3.55522C25.2173 2.95547 24.9997 2.17115 24.4719 1.72299ZM14.1358 5.83738C14.9794 7.19449 15.0056 8.82598 14.2041 10.0817C13.9966 10.4067 13.4543 10.9283 13.1125 11.1316C12.4231 11.5417 11.672 11.6992 10.8242 11.6116C10.098 11.5365 9.39632 11.2552 8.76592 10.7865C8.34729 10.4752 7.85443 9.89039 7.59994 9.40289C6.68846 7.65697 7.05013 5.63195 8.4679 4.54314C10.2108 3.20463 12.8778 3.81363 14.1358 5.83738Z"/></clipPath><linearGradient id="paint0_diamond_134_3431" x1="0" y1="0" x2="500" y2="500" gradientUnits="userSpaceOnUse">
<stop stop-color="#111111"/>
<stop offset="0.5" stop-color="#1E293B"/>
<stop offset="1" stop-color="#333333"/>
</linearGradient>
</defs>
</svg>
